<svg xmlns="http://www.w3.org/2000/svg" width="802.611" height="507.218" viewBox="0 0 802.611 507.218">
  <g id="Group_2" data-name="Group 2" transform="translate(-206 -280)">
    <g id="Group_1" data-name="Group 1" transform="translate(206 280)">
      <path id="Path_1" data-name="Path 1" d="M706.756,463.869l.782-17.576a56.766,56.766,0,0,1,26.477-6.7c-12.716,10.4-11.127,30.438-19.749,44.419a34.144,34.144,0,0,1-25.039,15.779L678.586,506.3a57.215,57.215,0,0,1,12.06-46.364A55.27,55.27,0,0,1,700.8,450.5c2.549,6.72,5.954,13.366,5.954,13.366Z" fill="#f2f2f2"/>
      <path id="Path_2" data-name="Path 2" d="M168.8,444.609l-25.68-7.775a86.572,86.572,0,0,1,.067-41.654c10.575,22.709,40.792,27.909,58.207,45.916a52.073,52.073,0,0,1,13.888,42.946l5.621,18.181a87.259,87.259,0,0,1-63.977-35.285,84.288,84.288,0,0,1-10.122-18.565c10.892-1.235,22-3.764,22-3.764Z" fill="#f2f2f2"/>
      <path id="Path_3" data-name="Path 3" d="M617.773,503.43a2.038,2.038,0,0,1-.59,1.42,1.988,1.988,0,0,1-1.41.58h-8.04a1.993,1.993,0,0,1-2-1.986V260.29c0-5.36-1.8-9.71-4.01-9.72H101.233c-2.22.01-4.01,4.36-4.02,9.72V501.94a2.006,2.006,0,0,1-1.81,1.99c-1.62.16-3.24.3-4.85.43-.04,0-.08.01-.12.01-.88.08-1.76.14-2.64.21h-.01c-.46-.83-.9-1.68-1.35-2.53a2.088,2.088,0,0,1-.22-.93V247.68c0-1.48.06-2.97.16-4.44a56.85,56.85,0,0,1,.75-6.02c1.69-9.29,5.51-15.58,9.85-15.6h509a4.682,4.682,0,0,1,1.84.39,7.174,7.174,0,0,1,2.27,1.59,14.072,14.072,0,0,1,2.23,3.05c2.14,3.77,3.67,9.39,4.21,15.93,0,.06.01.12.01.18.14,1.62.21,3.27.2,4.92l.14,21.43.09,12.78.27,40.1.1,14.24Z" fill="#003a72"/>
      <path id="Path_4" data-name="Path 4" d="M432.024,147.486H381.018a2.721,2.721,0,0,0-2.717,2.724v80.574h56.447V150.21a2.723,2.723,0,0,0-2.721-2.724h0Zm-25.331,45.781a6.051,6.051,0,0,1-6.023-6.023v-9.293a6.023,6.023,0,1,1,12.046,0v9.293A6.051,6.051,0,0,1,406.693,193.267Z" fill="#ccc"/>
      <path id="Path_5" data-name="Path 5" d="M378.126,228.207v7.774a1.523,1.523,0,0,0,1.52,1.52H433.4a1.527,1.527,0,0,0,1.52-1.52v-7.774Z" fill="#3f3d56"/>
      <path id="Path_6" data-name="Path 6" d="M516.484,21.742H298.455a7.078,7.078,0,0,0-7.066,7.066V175.935A7.073,7.073,0,0,0,298.455,183H516.484a7.073,7.073,0,0,0,7.066-7.066V28.808a7.078,7.078,0,0,0-7.066-7.066Z" fill="#e6e6e6"/>
      <path id="Path_7" data-name="Path 7" d="M514.664,26.846H300.276a3.787,3.787,0,0,0-3.779,3.787v143.48a3.786,3.786,0,0,0,3.779,3.779H514.664a3.786,3.786,0,0,0,3.779-3.779V30.633a3.787,3.787,0,0,0-3.779-3.787Z" fill="#2b1818"/>
      <path id="Path_8" data-name="Path 8" d="M472.9,240.206H345.356a2.346,2.346,0,0,1-2.3-2.83l1.979-9.4a2.356,2.356,0,0,1,2.3-1.863H470.926a2.356,2.356,0,0,1,2.3,1.863l1.979,9.4a2.346,2.346,0,0,1-2.3,2.83Z" fill="#ccc"/>
      <rect id="Rectangle_1" data-name="Rectangle 1" width="3.928" height="2.357" rx="0.488" transform="translate(348.241 227.806)" fill="#e6e6e6"/>
      <rect id="Rectangle_2" data-name="Rectangle 2" width="3.928" height="2.357" rx="0.488" transform="translate(356.098 227.806)" fill="#e6e6e6"/>
      <rect id="Rectangle_3" data-name="Rectangle 3" width="3.928" height="2.357" rx="0.488" transform="translate(363.954 227.806)" fill="#e6e6e6"/>
      <rect id="Rectangle_4" data-name="Rectangle 4" width="3.928" height="2.357" rx="0.488" transform="translate(371.811 227.806)" fill="#e6e6e6"/>
      <rect id="Rectangle_5" data-name="Rectangle 5" width="3.928" height="2.357" rx="0.488" transform="translate(379.668 227.806)" fill="#e6e6e6"/>
      <rect id="Rectangle_6" data-name="Rectangle 6" width="3.928" height="2.357" rx="0.488" transform="translate(387.525 227.806)" fill="#e6e6e6"/>
      <rect id="Rectangle_7" data-name="Rectangle 7" width="3.928" height="2.357" rx="0.488" transform="translate(395.382 227.806)" fill="#e6e6e6"/>
      <rect id="Rectangle_8" data-name="Rectangle 8" width="3.928" height="2.357" rx="0.488" transform="translate(403.238 227.806)" fill="#e6e6e6"/>
      <rect id="Rectangle_9" data-name="Rectangle 9" width="3.928" height="2.357" rx="0.488" transform="translate(411.095 227.806)" fill="#e6e6e6"/>
      <rect id="Rectangle_10" data-name="Rectangle 10" width="3.928" height="2.357" rx="0.488" transform="translate(418.952 227.806)" fill="#e6e6e6"/>
      <rect id="Rectangle_11" data-name="Rectangle 11" width="3.928" height="2.357" rx="0.488" transform="translate(426.809 227.806)" fill="#e6e6e6"/>
      <rect id="Rectangle_12" data-name="Rectangle 12" width="3.928" height="2.357" rx="0.488" transform="translate(434.665 227.806)" fill="#e6e6e6"/>
      <rect id="Rectangle_13" data-name="Rectangle 13" width="3.928" height="2.357" rx="0.488" transform="translate(442.522 227.806)" fill="#e6e6e6"/>
      <rect id="Rectangle_14" data-name="Rectangle 14" width="3.928" height="2.357" rx="0.488" transform="translate(450.379 227.806)" fill="#e6e6e6"/>
      <rect id="Rectangle_15" data-name="Rectangle 15" width="3.928" height="2.357" rx="0.488" transform="translate(458.236 227.806)" fill="#e6e6e6"/>
      <rect id="Rectangle_16" data-name="Rectangle 16" width="3.928" height="2.357" rx="0.488" transform="translate(466.092 227.806)" fill="#e6e6e6"/>
      <rect id="Rectangle_17" data-name="Rectangle 17" width="3.928" height="2.357" rx="0.488" transform="translate(348.148 231.735)" fill="#e6e6e6"/>
      <rect id="Rectangle_18" data-name="Rectangle 18" width="3.928" height="2.357" rx="0.488" transform="translate(356.005 231.735)" fill="#e6e6e6"/>
      <rect id="Rectangle_19" data-name="Rectangle 19" width="3.928" height="2.357" rx="0.488" transform="translate(363.862 231.735)" fill="#e6e6e6"/>
      <rect id="Rectangle_20" data-name="Rectangle 20" width="3.928" height="2.357" rx="0.488" transform="translate(371.718 231.735)" fill="#e6e6e6"/>
      <rect id="Rectangle_21" data-name="Rectangle 21" width="3.928" height="2.357" rx="0.488" transform="translate(379.575 231.735)" fill="#e6e6e6"/>
      <rect id="Rectangle_22" data-name="Rectangle 22" width="3.928" height="2.357" rx="0.488" transform="translate(387.432 231.735)" fill="#e6e6e6"/>
      <rect id="Rectangle_23" data-name="Rectangle 23" width="3.928" height="2.357" rx="0.488" transform="translate(395.289 231.735)" fill="#e6e6e6"/>
      <rect id="Rectangle_24" data-name="Rectangle 24" width="3.928" height="2.357" rx="0.488" transform="translate(403.145 231.735)" fill="#e6e6e6"/>
      <rect id="Rectangle_25" data-name="Rectangle 25" width="3.928" height="2.357" rx="0.488" transform="translate(411.002 231.735)" fill="#e6e6e6"/>
      <rect id="Rectangle_26" data-name="Rectangle 26" width="3.928" height="2.357" rx="0.488" transform="translate(418.859 231.735)" fill="#e6e6e6"/>
      <rect id="Rectangle_27" data-name="Rectangle 27" width="3.928" height="2.357" rx="0.488" transform="translate(426.716 231.735)" fill="#e6e6e6"/>
      <rect id="Rectangle_28" data-name="Rectangle 28" width="3.928" height="2.357" rx="0.488" transform="translate(434.573 231.735)" fill="#e6e6e6"/>
      <rect id="Rectangle_29" data-name="Rectangle 29" width="3.928" height="2.357" rx="0.488" transform="translate(442.429 231.735)" fill="#e6e6e6"/>
      <rect id="Rectangle_30" data-name="Rectangle 30" width="3.928" height="2.357" rx="0.488" transform="translate(450.286 231.735)" fill="#e6e6e6"/>
      <rect id="Rectangle_31" data-name="Rectangle 31" width="3.928" height="2.357" rx="0.488" transform="translate(458.143 231.735)" fill="#e6e6e6"/>
      <rect id="Rectangle_32" data-name="Rectangle 32" width="3.928" height="2.357" rx="0.488" transform="translate(466 231.735)" fill="#e6e6e6"/>
      <rect id="Rectangle_33" data-name="Rectangle 33" width="31.427" height="2.357" rx="0.488" transform="translate(385.861 236.449)" fill="#e6e6e6"/>
      <path id="Path_9" data-name="Path 9" d="M503.887,46.614h-200.6a.8.8,0,0,1,0-1.6h200.6a.8.8,0,0,1,0,1.6Z" fill="#cacaca"/>
      <ellipse id="Ellipse_1" data-name="Ellipse 1" cx="4.675" cy="4.779" rx="4.675" ry="4.779" transform="translate(312.266 31.387)" fill="#ccc"/>
      <ellipse id="Ellipse_2" data-name="Ellipse 2" cx="4.675" cy="4.779" rx="4.675" ry="4.779" transform="translate(328.417 31.387)" fill="#ccc"/>
      <ellipse id="Ellipse_3" data-name="Ellipse 3" cx="4.675" cy="4.779" rx="4.675" ry="4.779" transform="translate(344.567 31.387)" fill="#ccc"/>
      <path id="Path_10" data-name="Path 10" d="M403.381,58.71l-.648-1.893,82.858-43.052.647,1.893Z" fill="#3f3d56"/>
      <path id="Path_11" data-name="Path 11" d="M653.381,138.452l-.648-1.893,49.858-42.834.647,1.892Z" fill="#3f3d56"/>
      <path id="Path_12" data-name="Path 12" d="M557.591,148.423l-82.858-43.052.648-1.893,82.857,43.052Z" fill="#3f3d56"/>
      <path id="Path_13" data-name="Path 13" d="M600.006,118.465,551.431,38.719l1.535-1.283,48.574,79.746Z" fill="#3f3d56"/>
      <path id="Path_14" data-name="Path 14" d="M637.914,14.554l-47.307-.218v-2l47.307.218Z" fill="#3f3d56"/>
      <path id="Path_15" data-name="Path 15" d="M723.611,26.959h-53a13,13,0,0,1,0-26h53a13,13,0,0,1,0,26Z" fill="#003a72"/>
      <path id="Path_16" data-name="Path 16" d="M789.611,102.959h-53a13,13,0,1,1,0-26h53a13,13,0,0,1,0,26Z" fill="#003a72"/>
      <path id="Path_17" data-name="Path 17" d="M703.914,156.553l-47.307-.217v-2l47.307.217Z" fill="#3f3d56"/>
      <path id="Path_18" data-name="Path 18" d="M789.611,168.959h-53a13,13,0,0,1,0-26h53a13,13,0,0,1,0,26Z" fill="#003a72"/>
      <path id="Path_19" data-name="Path 19" d="M634.611,160h-53a13,13,0,0,1,0-26h53a13,13,0,0,1,0,26Z" fill="#003a72"/>
      <path id="Path_20" data-name="Path 20" d="M562.611,26h-53a13,13,0,1,1,0-26h53a13,13,0,0,1,0,26Z" fill="#003a72"/>
      <path id="Path_21" data-name="Path 21" d="M309.283,249.18h-60a8,8,0,1,0,0,16h22v62h16v-62h22a8,8,0,0,0,0-16Z" fill="#3f3d56"/>
      <path id="Path_22" data-name="Path 22" d="M348.884,361.517H188.4a64.805,64.805,0,0,1-63.917-55.636l-5.681-20.9a469.078,469.078,0,0,0-53.181-122.9c-10.747-17.454-16.279-34.349-3.715-50.615l.316-.41C72.3,97.941,122.458,95.1,138.809,94.55q.969-.033,1.945-.033h99.819q.977,0,1.945.033a48.847,48.847,0,0,1,42.236,26.921A50.331,50.331,0,0,1,281.9,173c-35.064,52.671-45.8,85.7-34.808,107.085,10.631,20.688,43.22,31.265,102.559,33.285,15.946.543,23.265,12.96,23.316,24.267.05,11.015-6.986,23.176-22.553,23.848q-.759.032-1.528.032Z" fill="#3f3d56"/>
      <path id="Path_23" data-name="Path 23" d="M215.663,504.017h60a8,8,0,0,0,0-16h-22v-135h-16v135h-22a8,8,0,0,0,0,16Z" fill="#3f3d56"/>
      <path id="Path_24" data-name="Path 24" d="M269.969,449.592l10.336,5.614,27.362-37.831-15.256-8.287Z" fill="#f1c27d"/>
      <path id="Path_25" data-name="Path 25" d="M274.944,436.111l18.764,5.876-2.987,7.861,12.867,18.675a5.253,5.253,0,0,1-6.191,7.891l-21.844-8.3-.811-9.206-4.424,7.217L262.082,463l12.862-26.885Z" fill="#2f2e41"/>
      <path id="Path_26" data-name="Path 26" d="M296.085,68.076a11.614,11.614,0,0,1-11.861,13.285l-39.851,84.8-12.5-17.43L272.9,68.545a11.677,11.677,0,0,1,23.187-.469h0Z" fill="#f1c27d"/>
      <path id="Path_27" data-name="Path 27" d="M163.835,183.3s-1.068,14.814,15.685,17.719,61.539-25.415,68.894-29.764S269.476,112.2,269.476,112.2l-11.92-20.162c-14.717,18.617-26.275,35.784-26.977,47.97l-66.744,43.3Z" fill="#adefd1"/>
      <path id="Path_28" data-name="Path 28" d="M183.175,234.327l3.618,15.546s.036,14.335,2.574,16.978c2.521,2.631,57.955-2.651,57.955-2.651s-5.877-23.1-5.8-40.578l-58.349,10.706Z" fill="#f1c27d"/>
      <path id="Path_29" data-name="Path 29" d="M300.283,433.18l-20-11c-.38-26.025,15.273-61.243,33.84-98.132-41.523,7.141-80.7,9.429-114.579.79a21.9,21.9,0,0,1-15.663-26.458q.2-.822.458-1.627c4.055-12.372-5.038-20.128,3.326-33.736,22-7.512,42.892-9.634,62-3l11.972,26.471,59.342-7.679a21.882,21.882,0,0,1,24.325,19.13q.01.082.019.164.12.966.156,1.94c-12,56.253-25.454,106.869-45.2,133.137Z" fill="#2f2e41"/>
      <path id="Path_30" data-name="Path 30" d="M175.12,135.9l22.861-1.35a4.641,4.641,0,0,1,4.564,2.863l6.46,15.662,26.85,22.192s10.631,13.528,10.655,31,3.772,57.91,3.772,57.91-15.515-21.839-25.091-16.03c-1.629.988-2.2,3.009-3.909,4.03-.851.509-2.818.014-3.677.525-13.2,7.833-26.958,15.486-28.244,14.145-2.525-2.635-5.587-16.1-5.587-16.1l-20.926-76.887A28.477,28.477,0,0,1,166.9,149.9c1.462-2.058,2.994-3.59,4.417-3.843,3.2-.681,1.5-7.844,3.806-10.156Z" fill="#adefd1"/>
      <path id="Path_31" data-name="Path 31" d="M369.589,482.16l9.65-6.709-21.861-41.244-14.242,9.9Z" fill="#f1c27d"/>
      <path id="Path_32" data-name="Path 32" d="M371.048,454.486,355.924,468c-24.048-26.8-42.227-64.376-57.633-107.053-40.366-11.822-70.807-30.888-97.382-53.526C191.894,299.8,185.136,290,192.824,280.7q.539-.652,1.126-1.26c9.078-9.33,32.1-7.552,45.585-16.1l30.121,32.2-1.895,8.632,56.577,19.165a21.852,21.852,0,0,1,13.395,27.85l-.059.167q-.318.92-.714,1.811l34.087,101.321Z" fill="#2f2e41"/>
      <path id="Path_33" data-name="Path 33" d="M363.963,479.44l15.447-12.165,4.8,6.9,22.678-.069a5.253,5.253,0,0,1,3.015,9.566l-19.187,13.338-8.055-4.531,3.457,7.728-7.234,5.029-14.92-25.8Z" fill="#2f2e41"/>
      <path id="Path_34" data-name="Path 34" d="M208.878,329.673a11.614,11.614,0,0,1-5.19-17.036l-51.754-78.1,21.386-1.626,47.2,76.707a11.677,11.677,0,0,1-11.644,20.057h0Z" fill="#f1c27d"/>
      <path id="Path_35" data-name="Path 35" d="M179.121,156.811s-12.1-8.608-23.289,4.2S145.581,226.8,145.476,235.34c-.033,2.675,3.83,8.448,9.153,15.117,2.39,2.994,5.073,6.168,7.831,9.323,1.6,1.826.221,5.626,1.823,7.4s6.164,1.5,7.68,3.143C179.156,278.1,185,284.017,185,284.017l23.42.288c.264-17.41-11.658-32.951-26.976-47.971l-2.324-79.524Z" fill="#adefd1"/>
      <path id="Path_36" data-name="Path 36" d="M155.514,81.008c-2.217,1.6-4.55,3.249-7.256,3.646s-5.873-.911-6.622-3.541c-.916-3.216,1.988-6.144,4.6-8.234l8.276-6.627a20.011,20.011,0,0,1,5.074-3.281,6.762,6.762,0,0,1,5.854.2A6.287,6.287,0,0,1,168.2,68.64a11.687,11.687,0,0,1-2.05,6,21.089,21.089,0,0,1-13.691,9.307" fill="#2f2e41"/>
      <path id="Path_37" data-name="Path 37" d="M218.283,253.18h-60a8,8,0,0,0,0,16h22v62h16v-62h22a8,8,0,0,0,0-16Z" fill="#3f3d56"/>
      <path id="Path_38" data-name="Path 38" d="M159.19,64.224c.241-6-6.15-10.748-12.14-10.372s-11.138,4.588-14.535,9.538S127.08,74.062,124.4,79.431s-6.237,10.626-11.553,13.409-12.713,2.283-16.386-2.461a13.208,13.208,0,0,0-1.357,11.865,18.088,18.088,0,0,0,7.938,9.211,20.8,20.8,0,0,0,4.6,2.021,18.715,18.715,0,0,1,2.766-4.975,15.451,15.451,0,0,0-.6,5.507,18.387,18.387,0,0,0,7.49-.118,15.945,15.945,0,0,0,11.062-9.021c2.246-5.318,1.1-11.381,1.583-17.133s3.943-12.321,9.716-12.415c4.4-.072,3.814.29,6.6,3.692" fill="#2f2e41"/>
      <path id="Path_39" data-name="Path 39" d="M199.111,95.742a26,26,0,0,1-26,26c-14.359,0-28-16.641-28-31s13.641-21,28-21A26,26,0,0,1,199.111,95.742Z" fill="#2f2e41"/>
      <circle id="Ellipse_4" data-name="Ellipse 4" cx="24.805" cy="24.805" r="24.805" transform="translate(151.677 83.268) rotate(-11.564)" fill="#f1c27d"/>
      <path id="Path_40" data-name="Path 40" d="M212.111,98.742c-7.343,2-14.757,4.107-17.62,0a22.578,22.578,0,0,0-3.11-7.66,31.015,31.015,0,0,1-1.83,7.66c-9.277,2.016-17.947,2.5-25.44,0a14.2,14.2,0,0,0-1.75,6.06,8.55,8.55,0,0,0-1.16-.61,1.919,1.919,0,0,0-1.58-.14,1.364,1.364,0,0,0-.65,1.01,3.771,3.771,0,0,0,.06,1.25,9.5,9.5,0,0,0,1.25,4.06,3.7,3.7,0,0,0,2.51,1.61c1.04,5.85,9.32,13.76,9.32,13.76-25,1-25-15.96-25-32l3-6h10v-13h28a24.006,24.006,0,0,1,24,24Z" fill="#2f2e41"/>
      <path id="Path_41" data-name="Path 41" d="M439.947,506.911,1.2,507.218a1.191,1.191,0,0,1-.012-2.381H1.2l438.75-.307a1.191,1.191,0,0,1,0,2.381Z" fill="#cacaca"/>
      <path id="Path_42" data-name="Path 42" d="M732.947,506.911l-226.75.307a1.191,1.191,0,1,1-.012-2.381h.012l226.75-.307a1.191,1.191,0,1,1,.008,2.381Z" fill="#cacaca"/>
      <path id="Path_43" data-name="Path 43" d="M449.974,148H364.021A13.539,13.539,0,0,1,350.5,134.477V77.523A13.538,13.538,0,0,1,364.021,64h85.953A13.538,13.538,0,0,1,463.5,77.523v56.953A13.538,13.538,0,0,1,449.974,148ZM364.021,66A11.537,11.537,0,0,0,352.5,77.523v56.953A11.536,11.536,0,0,0,364.021,146h85.953A11.537,11.537,0,0,0,461.5,134.477V77.523A11.536,11.536,0,0,0,449.974,66H364.021Z" fill="#e6e6e6"/>
      <rect id="Rectangle_34" data-name="Rectangle 34" width="22.991" height="2" transform="translate(366.498 82)" fill="#e6e6e6"/>
      <rect id="Rectangle_35" data-name="Rectangle 35" width="51" height="2" transform="translate(366.498 90)" fill="#e6e6e6"/>
      <rect id="Rectangle_36" data-name="Rectangle 36" width="51" height="2" transform="translate(366.498 97)" fill="#e6e6e6"/>
      <rect id="Rectangle_37" data-name="Rectangle 37" width="65" height="2" transform="translate(366.498 104)" fill="#e6e6e6"/>
      <rect id="Rectangle_38" data-name="Rectangle 38" width="34" height="2" transform="translate(366.498 111)" fill="#e6e6e6"/>
      <rect id="Rectangle_39" data-name="Rectangle 39" width="62" height="2" transform="translate(366.498 118)" fill="#e6e6e6"/>
      <rect id="Rectangle_40" data-name="Rectangle 40" width="11" height="2" transform="translate(366.498 125)" fill="#e6e6e6"/>
      <path id="Path_44" data-name="Path 44" d="M365.749,38.958a.373.373,0,0,1-.267-.112l-2.134-2.181a.374.374,0,0,1,0-.523l2.134-2.181a.374.374,0,1,1,.535.523l-1.878,1.92,1.878,1.92a.374.374,0,0,1-.267.635Z" fill="#ccc"/>
      <path id="Path_45" data-name="Path 45" d="M369.334,38.958a.374.374,0,0,1-.267-.635l1.878-1.92-1.878-1.92a.374.374,0,1,1,.535-.523l2.134,2.181a.374.374,0,0,1,0,.523L369.6,38.846a.373.373,0,0,1-.267.112Z" fill="#ccc"/>
      <path id="Path_46" data-name="Path 46" d="M480.958,33.545h-3.967a.819.819,0,0,0-.819.819v3.971a.819.819,0,0,0,.819.819h3.967a.822.822,0,0,0,.823-.819V34.364A.822.822,0,0,0,480.958,33.545Z" fill="#ccc"/>
      <path id="Path_47" data-name="Path 47" d="M471.235,33.545h-3.967a.819.819,0,0,0-.819.819v3.971a.819.819,0,0,0,.819.819h3.967a.822.822,0,0,0,.823-.819V34.364A.822.822,0,0,0,471.235,33.545Z" fill="#ccc"/>
      <path id="Path_48" data-name="Path 48" d="M490.119,33.732h-3.967a.819.819,0,0,0-.819.819v3.971a.819.819,0,0,0,.819.819h3.967a.822.822,0,0,0,.823-.819V34.551A.822.822,0,0,0,490.119,33.732Z" fill="#ccc"/>
      <path id="Path_49" data-name="Path 49" d="M430.319,35.243H398.606a1,1,0,1,0,0,2h31.713a1,1,0,1,0,0-2Z" fill="#ccc"/>
    </g>
  </g>
</svg>
