<svg xmlns="http://www.w3.org/2000/svg" width="781.722" height="638.346" viewBox="0 0 781.722 638.346">
  <g id="Group_1" data-name="Group 1" transform="translate(0 0)">
    <path id="Path_1" data-name="Path 1" d="M323.856,674.906c49.338-25.576,151.33-68.483,280.069-68.483s230.731,42.907,280.069,68.483c48.032,24.9,86.661,54.258,104.858,78.211,6.633-9.028-3.1-169.642-30.044-233.34A516.235,516.235,0,0,0,482.745,204.223a273.27,273.27,0,0,0-194.5,80.567q-1.624,1.624-3.217,3.269C228.006,346.959,201.383,428.9,211.1,510.3c6.92,57.952,23.976,179.165,48.074,204.866a458.813,458.813,0,0,1,64.679-40.261Z" transform="translate(-209.139 -130.827)" fill="#003a72"/>
    <circle id="Ellipse_1" data-name="Ellipse 1" cx="73.736" cy="73.736" r="73.736" transform="translate(410.555 1.424)" fill="#adefd1"/>
    <ellipse id="Ellipse_2" data-name="Ellipse 2" cx="81.969" cy="17.1" rx="81.969" ry="17.1" transform="translate(318.551 481.146)" fill="#f2f2f2"/>
    <path id="Path_2" data-name="Path 2" d="M692.929,242.723c-75.14-.007-134-13.629-134-31.012,0-10.422,20.858-19.719,57.222-25.506a1,1,0,0,1,.331,1.972h0l-.013,0c-34.255,5.452-55.536,14.469-55.537,23.531,0,15.72,60.446,29.005,132,29.012s132-13.268,132-28.988c0-9.1-21.414-18.143-55.888-23.6a1,1,0,1,1,.3-1.977h.01c36.591,5.79,57.576,15.111,57.575,25.574C826.93,229.118,768.069,242.73,692.929,242.723Z" transform="translate(-209.139 -130.827)" fill="#3f3d56"/>
    <path id="Path_3" data-name="Path 3" d="M698.284,230.811c-64.749,38.126-122.378,56.258-131.2,41.278-5.288-8.981,7.966-27.576,36.363-51.017a1,1,0,0,1,1.286,1.532l0,0-.01.008c-26.75,22.082-40.511,40.65-35.912,48.459,7.976,13.546,66.8-5.682,128.46-41.987s107.008-78.42,99.031-91.966c-4.618-7.842-27.659-4.766-60.132,8.028a1,1,0,0,1-.743-1.857h0l.007,0c34.467-13.58,57.28-16.2,62.588-7.182C806.845,151.086,763.033,192.685,698.284,230.811Z" transform="translate(-209.139 -130.827)" fill="#3f3d56"/>
    <ellipse id="Ellipse_3" data-name="Ellipse 3" cx="55.605" cy="9.218" rx="55.605" ry="9.218" transform="translate(347.235 488.881)" fill="#e6e6e6"/>
    <ellipse id="Ellipse_4" data-name="Ellipse 4" cx="93.552" cy="19.517" rx="93.552" ry="19.517" transform="translate(123.968 565.732)" fill="#f2f2f2"/>
    <ellipse id="Ellipse_5" data-name="Ellipse 5" cx="139.491" cy="29.1" rx="139.491" ry="29.1" transform="translate(459.029 580.146)" fill="#f2f2f2"/>
    <ellipse id="Ellipse_6" data-name="Ellipse 6" cx="71.711" cy="11.888" rx="71.711" ry="11.888" transform="translate(145.524 572.734)" fill="#e6e6e6"/>
    <ellipse id="Ellipse_7" data-name="Ellipse 7" cx="122.603" cy="20.324" rx="122.603" ry="20.324" transform="translate(475.948 587.073)" fill="#e6e6e6"/>
    <circle id="Ellipse_8" data-name="Ellipse 8" cx="7" cy="7" r="7" transform="translate(50.787 309.896)" fill="#fff"/>
    <circle id="Ellipse_9" data-name="Ellipse 9" cx="7" cy="7" r="7" transform="translate(540.787 411.896)" fill="#fff"/>
    <path id="Path_4" data-name="Path 4" d="M517.858,325.8c16.995,4.85,16.342,15,36.5,15s36.5,2.673,36.5-15-8.023-50.527-36.5-49C523.709,278.446,507.554,322.863,517.858,325.8Z" transform="translate(-209.139 -130.827)" fill="#2f2e41"/>
    <path id="Path_5" data-name="Path 5" d="M473.133,475.456a10.743,10.743,0,0,1,6.253-15.24L521.2,371.757,540.33,385.17,493.211,467.9a10.8,10.8,0,0,1-20.078,7.551Z" transform="translate(-209.139 -130.827)" fill="#ffb8b8"/>
    <path id="Path_6" data-name="Path 6" d="M508.965,383.5a4.812,4.812,0,0,1,.552-3.973l13-20.382A13.377,13.377,0,1,1,546.974,370l-6.549,23.353a4.817,4.817,0,0,1-6.6,3.1l-22.209-9.931a4.812,4.812,0,0,1-2.647-3.014Z" transform="translate(-209.139 -130.827)" fill="#adefd1"/>
    <path id="Path_7" data-name="Path 7" d="M415.837,515.575l-11.52,4.2-21.661-42.438,17-6.191Z" fill="#ffb8b8"/>
    <path id="Path_8" data-name="Path 8" d="M604.028,650.3l22.217-8.089h0l5.093,13.989h0l-36.205,13.183h0a14.887,14.887,0,0,1,8.9-19.082Z" transform="translate(-209.139 -130.827)" fill="#2f2e41"/>
    <path id="Path_9" data-name="Path 9" d="M593.526,619.558l-43.887-76.8a4.822,4.822,0,0,1,.052-4.868l19.762-32.937a4.817,4.817,0,0,1,8.661.841L615.478,609.26a4.8,4.8,0,0,1-2.469,5.99l-13.239,6.271a4.773,4.773,0,0,1-2.044.459A4.84,4.84,0,0,1,593.526,619.558Z" transform="translate(-209.139 -130.827)" fill="#2f2e41"/>
    <circle id="Ellipse_10" data-name="Ellipse 10" cx="24.561" cy="24.561" r="24.561" transform="translate(319.101 159.895)" fill="#ffb8b8"/>
    <path id="Path_10" data-name="Path 10" d="M517.865,426.534c-19.342-42.888.157-66.859,9.439-75.173a14.557,14.557,0,0,1,9.73-3.721h34.6a14.576,14.576,0,0,1,13.037,21.095l-23.13,46.259-43.488,11.96Z" transform="translate(-209.139 -130.827)" fill="#adefd1"/>
    <path id="Path_11" data-name="Path 11" d="M336.7,527.172h-12.26l-5.832-47.288H336.7Z" fill="#ffb8b8"/>
    <path id="Path_12" data-name="Path 12" d="M524.82,654.495h23.644v14.887H509.933A14.887,14.887,0,0,1,524.82,654.5Z" transform="translate(-209.139 -130.827)" fill="#2f2e41"/>
    <path id="Path_13" data-name="Path 13" d="M540.642,639.946l-19.628-2.264a4.818,4.818,0,0,1-4.233-5.339c0-.027.007-.054.01-.081l17.518-131.9a3.748,3.748,0,0,0-.073-1.377L516.628,426.34a4.761,4.761,0,0,1,.754-3.926c2.73-3.764,12.086-12.537,39.914-12.7h.03a4.834,4.834,0,0,1,4.4,2.826l3.713,8.167a3.762,3.762,0,0,0,1.253,1.513c5.11,3.617,29.862,23.918,15.328,68.488-14.285,43.807-32.587,128.855-36.111,145.459a4.791,4.791,0,0,1-4.7,3.814,4.931,4.931,0,0,1-.565-.032Z" transform="translate(-209.139 -130.827)" fill="#2f2e41"/>
    <path id="Path_14" data-name="Path 14" d="M638.28,321.447a10.529,10.529,0,0,0,.273,1.635L605.206,359.79l-11.778-2.538-6.154,17.274,20.413,6.52a8,8,0,0,0,9.069-3.151l31.521-46.8a10.5,10.5,0,1,0-10-9.651Z" transform="translate(-209.139 -130.827)" fill="#ffb8b8"/>
    <path id="Path_15" data-name="Path 15" d="M604.2,361.346l-7.731,21.372a4.5,4.5,0,0,1-6.366,2.431L570.151,374.4a12.5,12.5,0,1,1,8.571-23.479l22.136,4.482a4.5,4.5,0,0,1,3.337,5.941Z" transform="translate(-209.139 -130.827)" fill="#adefd1"/>
    <path id="Path_16" data-name="Path 16" d="M582.858,313.8h-9.714l-4.286-12-.857,12h-4.643l-2.5-7-.5,7c-12.15,5.127-23.668,5.268-34.5,0a26,26,0,0,1,26-26h5a26,26,0,0,1,26,26Z" transform="translate(-209.139 -130.827)" fill="#2f2e41"/>
    <path id="Path_17" data-name="Path 17" d="M323.425,570.723h-3.5v-3.5a4.5,4.5,0,0,0-9,0v3.5h-3.5a4.5,4.5,0,0,0,0,9h3.5v3.5a4.5,4.5,0,0,0,9,0v-3.5h3.5a4.5,4.5,0,1,0,0-9Z" transform="translate(-209.139 -130.827)" fill="#fff"/>
    <path id="Path_18" data-name="Path 18" d="M838.585,484.883h-1.82v-1.82a2.34,2.34,0,0,0-4.68,0v1.82h-1.82a2.34,2.34,0,1,0,0,4.68h1.82v1.82a2.34,2.34,0,1,0,4.68,0v-1.82h1.82a2.34,2.34,0,0,0,.008-4.68Z" transform="translate(-209.139 -130.827)" fill="#ff6584"/>
    <path id="Path_19" data-name="Path 19" d="M307.585,363.883h-1.82v-1.82a2.34,2.34,0,0,0-4.68-.009v1.829h-1.82a2.34,2.34,0,0,0-.008,4.68h1.828v1.82a2.34,2.34,0,1,0,4.68.009v-1.829h1.82a2.34,2.34,0,0,0,.013-4.68h-.005Z" transform="translate(-209.139 -130.827)" fill="#6c63ff"/>
    <path id="Path_20" data-name="Path 20" d="M442.585,363.883h-1.82v-1.82a2.34,2.34,0,0,0-4.68-.009v1.829h-1.82a2.34,2.34,0,0,0-.008,4.68h1.828v1.82a2.34,2.34,0,1,0,4.68.009v-1.829h1.82a2.34,2.34,0,0,0,.013-4.68h-.005Z" transform="translate(-209.139 -130.827)" fill="#fff"/>
    <path id="Path_21" data-name="Path 21" d="M907.585,603.883h-1.82v-1.82a2.34,2.34,0,1,0-4.68,0v1.82h-1.82a2.34,2.34,0,1,0,0,4.68h1.82v1.82a2.34,2.34,0,1,0,4.68,0v-1.82h1.82a2.34,2.34,0,0,0,0-4.68Z" transform="translate(-209.139 -130.827)" fill="#fff"/>
    <path id="Path_22" data-name="Path 22" d="M697.585,408.883h-1.82v-1.82a2.34,2.34,0,0,0-4.68,0v1.82h-1.82a2.34,2.34,0,1,0,0,4.68h1.82v1.82a2.34,2.34,0,0,0,4.68,0v-1.82h1.82a2.34,2.34,0,0,0,.008-4.68Z" transform="translate(-209.139 -130.827)" fill="#fff"/>
    <path id="Path_23" data-name="Path 23" d="M376.585,458.883h-1.82v-1.82a2.34,2.34,0,1,0-4.68-.009v1.829h-1.82a2.34,2.34,0,0,0-.008,4.68h1.828v1.82a2.34,2.34,0,0,0,4.68.009v-1.829h1.82a2.34,2.34,0,0,0,.008-4.68Z" transform="translate(-209.139 -130.827)" fill="#fff"/>
    <path id="Path_24" data-name="Path 24" d="M382.585,292.883h-1.82v-1.82a2.34,2.34,0,0,0-4.68-.009v1.829h-1.82a2.34,2.34,0,0,0-.008,4.68h1.828v1.82a2.34,2.34,0,0,0,4.68.009v-1.829h1.82a2.34,2.34,0,0,0,.008-4.68h0Z" transform="translate(-209.139 -130.827)" fill="#fff"/>
    <path id="Path_25" data-name="Path 25" d="M693.427,228.326c-72.436-36.59-133.18-24.7-134-31.012,0-10.422,20.858-19.719,57.222-25.506a1,1,0,0,1,.331,1.972h0l-.013,0c-34.255,5.452-55.536,14.469-55.537,23.531,0,15.72,60.446,29.005,132,29.012s132-13.268,132-28.988c0-9.1-21.414-18.143-55.888-23.6a1,1,0,1,1,.3-1.977h.01c36.591,5.79,57.576,15.111,57.575,25.574C827.428,214.722,760.5,262.2,693.427,228.326Z" transform="translate(-209.139 -130.827)" fill="#3f3d56"/>
  </g>
</svg>
